<mxfile host="app.diagrams.net" modified="2024-02-13T01:12:30.388Z" agent="Mozilla/5.0 (Windows NT 10.0; Win64; x64) AppleWebKit/537.36 (KHTML, like Gecko) Chrome/121.0.0.0 Safari/537.36" version="23.1.3" etag="vz1_pWEyJ7R3o3E1BNQ8" type="github">
  <diagram name="Page-1" id="16geSdlhGBoAcHuTHssB">
    <mxGraphModel>
      <root>
        <mxCell id="0" />
        <mxCell id="1" parent="0" />
      </root>
    </mxGraphModel>
  </diagram>
</mxfile>
